<svg xmlns="http://www.w3.org/2000/svg" x="0px" y="0px" width="18px" height="18px" viewBox="0 0 18 18">
  <path d="M7.25 5.2578V3.25C7.25 2.698 7.698 2.25 8.25 2.25H14.75C15.302 2.25 15.75 2.698 15.75 3.25V14.75C15.75 15.302 15.302 15.75 14.75 15.75H8.25C7.698 15.75 7.25 15.302 7.25 14.75V12.7422" stroke="#1c1f21" stroke-width="1.5" stroke-linecap="round" stroke-linejoin="round" fill="none"></path>
  <path d="M4 11.75L6.75 9L4 6.25" stroke="#1c1f21" stroke-width="1.5" stroke-linecap="round" stroke-linejoin="round" data-color="color-2" fill="none"></path>
  <path d="M6.75 9H0.75" stroke="#1c1f21" stroke-width="1.5" stroke-linecap="round" stroke-linejoin="round" data-color="color-2" fill="none"></path>
  <path d="M15.543 2.64801L12.222 4.70701C11.928 4.88901 11.749 5.21101 11.749 5.55701V12.444C11.749 12.79 11.928 13.111 12.222 13.294L15.544 15.354" stroke="#1c1f21" stroke-width="1.5" stroke-linecap="round" stroke-linejoin="round" fill="none"></path>
</svg>